<svg width="128" height="128" viewBox="0 0 128 128" xmlns="http://www.w3.org/2000/svg">
<path d="M62.3271 18C69.2994 18 74.1609 18.8446 78.8848 21.8301C83.6616 24.8491 88.3925 30.115 94.9316 39.2129C95.0926 39.4367 95.339 39.5839 95.6123 39.6201C95.8856 39.6563 96.1613 39.5776 96.375 39.4033L106.196 31.3916C106.864 30.8472 107.862 31.3455 107.828 32.2061L106.385 69.2471C106.361 69.8638 105.789 70.3115 105.185 70.1875L70.0674 62.9717C69.2419 62.8021 68.9837 61.7495 69.6367 61.2168L79.6309 53.0645C80.0403 52.7304 80.1187 52.1352 79.8105 51.7061C73.2575 42.5888 68.7197 37.6251 64.8242 34.958C60.8434 32.2325 57.5778 31.9375 53.7891 31.9375C52.2911 31.9375 50.3694 32.2962 48.3262 32.8428C46.2665 33.3937 44.0188 34.1527 41.8457 34.9922C39.0417 36.0754 36.2998 37.3179 34.2217 38.4453C37.7663 30.291 45.7245 18 62.3271 18Z" fill="url(#paint0_linear_0_1)" stroke="#346DB7" stroke-width="2" stroke-linejoin="round"/>
<path d="M65.1729 110.484C58.2006 110.484 53.3391 109.64 48.6152 106.654C43.8384 103.635 39.1075 98.3693 32.5684 89.2714C32.4074 89.0476 32.161 88.9003 31.8877 88.8641C31.6144 88.828 31.3387 88.9067 31.125 89.0809L21.3037 97.0927C20.6364 97.6371 19.6383 97.1388 19.6719 96.2782L21.1152 59.2372C21.1394 58.6205 21.7109 58.1727 22.3154 58.2968L57.4326 65.5126C58.2581 65.6822 58.5163 66.7347 57.8633 67.2675L47.8691 75.4198C47.4597 75.7539 47.3813 76.349 47.6895 76.7782C54.2425 85.8954 58.7803 90.8591 62.6758 93.5262C66.6566 96.2518 69.9222 96.5468 73.7109 96.5468C75.2089 96.5467 77.1306 96.188 79.1738 95.6415C81.2335 95.0905 83.4812 94.3316 85.6543 93.4921C88.4583 92.4088 91.2002 91.1663 93.2783 90.0389C89.7337 98.1933 81.7755 110.484 65.1729 110.484Z" fill="url(#paint1_linear_0_1)" stroke="#346DB7" stroke-width="2" stroke-linejoin="round"/>
<defs>
<linearGradient id="paint0_linear_0_1" x1="106.723" y1="71.0723" x2="45.8205" y2="20.4151" gradientUnits="userSpaceOnUse">
<stop stop-color="#AFD3E5"/>
<stop offset="1" stop-color="#40A2FF"/>
</linearGradient>
<linearGradient id="paint1_linear_0_1" x1="20.777" y1="57.4119" x2="81.6795" y2="108.069" gradientUnits="userSpaceOnUse">
<stop stop-color="#AFD3E5"/>
<stop offset="1" stop-color="#40A2FF"/>
</linearGradient>
</defs>
</svg>
